<svg width="159" height="50" viewBox="0 0 159 50" fill="none" xmlns="http://www.w3.org/2000/svg">
<rect id="Rectangle 2" width="53" height="50" rx="16" fill="#2CB1BC"/>
<path id="H" d="M32.6875 23.4102V26.1699H18.8359V23.4102H32.6875ZM19.3633 12.4062V38H15.9707V12.4062H19.3633ZM35.6406 12.4062V38H32.2656V12.4062H35.6406Z" fill="white"/>
<path id="Hirefy" d="M83.6875 23.4102V26.1699H69.8359V23.4102H83.6875ZM70.3633 12.4062V38H66.9707V12.4062H70.3633ZM86.6406 12.4062V38H83.2656V12.4062H86.6406ZM95.7109 18.9805V38H92.4414V18.9805H95.7109ZM92.1953 13.9355C92.1953 13.4082 92.3535 12.9629 92.6699 12.5996C92.998 12.2363 93.4785 12.0547 94.1113 12.0547C94.7324 12.0547 95.207 12.2363 95.5352 12.5996C95.875 12.9629 96.0449 13.4082 96.0449 13.9355C96.0449 14.4395 95.875 14.873 95.5352 15.2363C95.207 15.5879 94.7324 15.7637 94.1113 15.7637C93.4785 15.7637 92.998 15.5879 92.6699 15.2363C92.3535 14.873 92.1953 14.4395 92.1953 13.9355ZM104.184 21.9688V38H100.932V18.9805H104.096L104.184 21.9688ZM110.125 18.875L110.107 21.8984C109.838 21.8398 109.58 21.8047 109.334 21.793C109.1 21.7695 108.83 21.7578 108.525 21.7578C107.775 21.7578 107.113 21.875 106.539 22.1094C105.965 22.3438 105.479 22.6719 105.08 23.0938C104.682 23.5156 104.365 24.0195 104.131 24.6055C103.908 25.1797 103.762 25.8125 103.691 26.5039L102.777 27.0312C102.777 25.8828 102.889 24.8047 103.111 23.7969C103.346 22.7891 103.703 21.8984 104.184 21.125C104.664 20.3398 105.273 19.7305 106.012 19.2969C106.762 18.8516 107.652 18.6289 108.684 18.6289C108.918 18.6289 109.188 18.6582 109.492 18.7168C109.797 18.7637 110.008 18.8164 110.125 18.875ZM120.672 38.3516C119.348 38.3516 118.146 38.1289 117.068 37.6836C116.002 37.2266 115.082 36.5879 114.309 35.7676C113.547 34.9473 112.961 33.9746 112.551 32.8496C112.141 31.7246 111.936 30.4941 111.936 29.1582V28.4199C111.936 26.873 112.164 25.4961 112.621 24.2891C113.078 23.0703 113.699 22.0391 114.484 21.1953C115.27 20.3516 116.16 19.7129 117.156 19.2793C118.152 18.8457 119.184 18.6289 120.25 18.6289C121.609 18.6289 122.781 18.8633 123.766 19.332C124.762 19.8008 125.576 20.457 126.209 21.3008C126.842 22.1328 127.311 23.1172 127.615 24.2539C127.92 25.3789 128.072 26.6094 128.072 27.9453V29.4043H113.869V26.75H124.82V26.5039C124.773 25.6602 124.598 24.8398 124.293 24.043C124 23.2461 123.531 22.5898 122.887 22.0742C122.242 21.5586 121.363 21.3008 120.25 21.3008C119.512 21.3008 118.832 21.459 118.211 21.7754C117.59 22.0801 117.057 22.5371 116.611 23.1465C116.166 23.7559 115.82 24.5 115.574 25.3789C115.328 26.2578 115.205 27.2715 115.205 28.4199V29.1582C115.205 30.0605 115.328 30.9102 115.574 31.707C115.832 32.4922 116.201 33.1836 116.682 33.7812C117.174 34.3789 117.766 34.8477 118.457 35.1875C119.16 35.5273 119.957 35.6973 120.848 35.6973C121.996 35.6973 122.969 35.4629 123.766 34.9941C124.562 34.5254 125.26 33.8984 125.857 33.1133L127.826 34.6777C127.416 35.2988 126.895 35.8906 126.262 36.4531C125.629 37.0156 124.85 37.4727 123.924 37.8242C123.01 38.1758 121.926 38.3516 120.672 38.3516ZM136.721 38H133.469V16.9766C133.469 15.6055 133.715 14.4512 134.207 13.5137C134.711 12.5645 135.432 11.8496 136.369 11.3691C137.307 10.877 138.42 10.6309 139.709 10.6309C140.084 10.6309 140.459 10.6543 140.834 10.7012C141.221 10.748 141.596 10.8184 141.959 10.9121L141.783 13.5664C141.537 13.5078 141.256 13.4668 140.939 13.4434C140.635 13.4199 140.33 13.4082 140.025 13.4082C139.334 13.4082 138.736 13.5488 138.232 13.8301C137.74 14.0996 137.365 14.498 137.107 15.0254C136.85 15.5527 136.721 16.2031 136.721 16.9766V38ZM140.764 18.9805V21.4766H130.463V18.9805H140.764ZM149.729 36.0312L155.02 18.9805H158.5L150.871 40.9355C150.695 41.4043 150.461 41.9082 150.168 42.4473C149.887 42.998 149.523 43.5195 149.078 44.0117C148.633 44.5039 148.094 44.9023 147.461 45.207C146.84 45.5234 146.096 45.6816 145.229 45.6816C144.971 45.6816 144.643 45.6465 144.244 45.5762C143.846 45.5059 143.564 45.4473 143.4 45.4004L143.383 42.7637C143.477 42.7754 143.623 42.7871 143.822 42.7988C144.033 42.8223 144.18 42.834 144.262 42.834C145 42.834 145.627 42.7344 146.143 42.5352C146.658 42.3477 147.092 42.0254 147.443 41.5684C147.807 41.123 148.117 40.5078 148.375 39.7227L149.729 36.0312ZM145.844 18.9805L150.783 33.7461L151.627 37.1738L149.289 38.3691L142.293 18.9805H145.844Z" fill="#2CB1BC"/>
</svg>
